<svg width="194" height="77" viewBox="0 0 194 77" fill="none" xmlns="http://www.w3.org/2000/svg">
<path d="M14.076 70.54C12.204 70.54 10.524 70.252 9.036 69.676C7.548 69.1 6.288 68.26 5.256 67.156C4.224 66.028 3.432 64.66 2.88 63.052C2.328 61.444 2.052 59.596 2.052 57.508C2.052 55.42 2.364 53.572 2.988 51.964C3.636 50.356 4.512 49 5.616 47.896C6.72 46.768 8.016 45.916 9.504 45.34C10.992 44.764 12.588 44.476 14.292 44.476C15.324 44.476 16.26 44.56 17.1 44.728C17.94 44.872 18.672 45.04 19.296 45.232C19.92 45.424 20.436 45.628 20.844 45.844C21.252 46.06 21.54 46.216 21.708 46.312L20.376 50.02C19.8 49.66 18.972 49.324 17.892 49.012C16.836 48.676 15.684 48.508 14.436 48.508C13.356 48.508 12.348 48.7 11.412 49.084C10.476 49.444 9.66 49.996 8.964 50.74C8.292 51.484 7.764 52.42 7.38 53.548C6.996 54.676 6.804 55.984 6.804 57.472C6.804 58.792 6.948 60.004 7.236 61.108C7.548 62.212 8.016 63.172 8.64 63.988C9.264 64.78 10.056 65.404 11.016 65.86C11.976 66.292 13.128 66.508 14.472 66.508C16.08 66.508 17.388 66.352 18.396 66.04C19.404 65.704 20.184 65.392 20.736 65.104L21.96 68.812C21.672 69.004 21.276 69.196 20.772 69.388C20.292 69.58 19.716 69.772 19.044 69.964C18.372 70.132 17.616 70.264 16.776 70.36C15.936 70.48 15.036 70.54 14.076 70.54ZM42.3 60.568C42.3 62.056 42.084 63.412 41.652 64.636C41.22 65.86 40.608 66.904 39.816 67.768C39.024 68.632 38.064 69.304 36.936 69.784C35.832 70.264 34.608 70.504 33.264 70.504C31.92 70.504 30.696 70.264 29.592 69.784C28.488 69.304 27.54 68.632 26.748 67.768C25.956 66.904 25.332 65.86 24.876 64.636C24.444 63.412 24.228 62.056 24.228 60.568C24.228 59.08 24.444 57.736 24.876 56.536C25.332 55.312 25.956 54.268 26.748 53.404C27.564 52.54 28.524 51.88 29.628 51.424C30.732 50.944 31.944 50.704 33.264 50.704C34.584 50.704 35.796 50.944 36.9 51.424C38.028 51.88 38.988 52.54 39.78 53.404C40.572 54.268 41.184 55.312 41.616 56.536C42.072 57.736 42.3 59.08 42.3 60.568ZM37.836 60.568C37.836 58.696 37.428 57.22 36.612 56.14C35.82 55.036 34.704 54.484 33.264 54.484C31.824 54.484 30.696 55.036 29.88 56.14C29.088 57.22 28.692 58.696 28.692 60.568C28.692 62.464 29.088 63.964 29.88 65.068C30.696 66.172 31.824 66.724 33.264 66.724C34.704 66.724 35.82 66.172 36.612 65.068C37.428 63.964 37.836 62.464 37.836 60.568ZM46.7876 51.784C47.6276 51.544 48.7196 51.316 50.0636 51.1C51.4076 50.884 52.8956 50.776 54.5276 50.776C56.0636 50.776 57.3476 50.992 58.3796 51.424C59.4116 51.832 60.2276 52.42 60.8276 53.188C61.4516 53.932 61.8836 54.844 62.1236 55.924C62.3876 56.98 62.5196 58.144 62.5196 59.416V70H58.1636V60.1C58.1636 59.092 58.0916 58.24 57.9476 57.544C57.8276 56.824 57.6116 56.248 57.2996 55.816C57.0116 55.36 56.6036 55.036 56.0756 54.844C55.5716 54.628 54.9476 54.52 54.2036 54.52C53.6516 54.52 53.0756 54.556 52.4756 54.628C51.8756 54.7 51.4316 54.76 51.1436 54.808V70H46.7876V51.784ZM67.6302 46.204L71.9862 45.484V51.172H78.6822V54.808H71.9862V62.476C71.9862 63.988 72.2262 65.068 72.7062 65.716C73.1862 66.364 74.0022 66.688 75.1542 66.688C75.9462 66.688 76.6422 66.604 77.2422 66.436C77.8662 66.268 78.3582 66.112 78.7182 65.968L79.4382 69.424C78.9342 69.64 78.2742 69.856 77.4582 70.072C76.6422 70.312 75.6822 70.432 74.5782 70.432C73.2342 70.432 72.1062 70.252 71.1942 69.892C70.3062 69.532 69.5982 69.016 69.0702 68.344C68.5422 67.648 68.1702 66.82 67.9542 65.86C67.7382 64.876 67.6302 63.76 67.6302 62.512V46.204ZM89.5171 66.94C90.8611 66.94 91.8811 66.868 92.5771 66.724V61.9C92.3371 61.828 91.9891 61.756 91.5331 61.684C91.0771 61.612 90.5731 61.576 90.0211 61.576C89.5411 61.576 89.0491 61.612 88.5451 61.684C88.0651 61.756 87.6211 61.888 87.2131 62.08C86.8291 62.272 86.5171 62.548 86.2771 62.908C86.0371 63.244 85.9171 63.676 85.9171 64.204C85.9171 65.236 86.2411 65.956 86.8891 66.364C87.5371 66.748 88.4131 66.94 89.5171 66.94ZM89.1571 50.704C90.5971 50.704 91.8091 50.884 92.7931 51.244C93.7771 51.604 94.5571 52.108 95.1331 52.756C95.7331 53.404 96.1531 54.196 96.3931 55.132C96.6571 56.044 96.7891 57.052 96.7891 58.156V69.568C96.1171 69.712 95.0971 69.88 93.7291 70.072C92.3851 70.288 90.8611 70.396 89.1571 70.396C88.0291 70.396 86.9971 70.288 86.0611 70.072C85.1251 69.856 84.3211 69.508 83.6491 69.028C83.0011 68.548 82.4851 67.924 82.1011 67.156C81.7411 66.388 81.5611 65.44 81.5611 64.312C81.5611 63.232 81.7651 62.32 82.1731 61.576C82.6051 60.832 83.1811 60.232 83.9011 59.776C84.6211 59.296 85.4491 58.96 86.3851 58.768C87.3451 58.552 88.3411 58.444 89.3731 58.444C89.8531 58.444 90.3571 58.48 90.8851 58.552C91.4131 58.6 91.9771 58.696 92.5771 58.84V58.12C92.5771 57.616 92.5171 57.136 92.3971 56.68C92.2771 56.224 92.0611 55.828 91.7491 55.492C91.4611 55.132 91.0651 54.856 90.5611 54.664C90.0811 54.472 89.4691 54.376 88.7251 54.376C87.7171 54.376 86.7931 54.448 85.9531 54.592C85.1131 54.736 84.4291 54.904 83.9011 55.096L83.3611 51.568C83.9131 51.376 84.7171 51.184 85.7731 50.992C86.8291 50.8 87.9571 50.704 89.1571 50.704ZM101.08 60.604C101.08 59.212 101.296 57.916 101.728 56.716C102.16 55.492 102.772 54.436 103.564 53.548C104.38 52.66 105.364 51.964 106.516 51.46C107.668 50.956 108.964 50.704 110.404 50.704C112.18 50.704 113.86 51.028 115.444 51.676L114.508 55.24C114.004 55.024 113.428 54.844 112.78 54.7C112.156 54.556 111.484 54.484 110.764 54.484C109.06 54.484 107.764 55.024 106.876 56.104C105.988 57.16 105.544 58.66 105.544 60.604C105.544 62.476 105.964 63.964 106.804 65.068C107.644 66.148 109.06 66.688 111.052 66.688C111.796 66.688 112.528 66.616 113.248 66.472C113.968 66.328 114.592 66.148 115.12 65.932L115.732 69.532C115.252 69.772 114.52 69.988 113.536 70.18C112.576 70.372 111.58 70.468 110.548 70.468C108.94 70.468 107.536 70.228 106.336 69.748C105.16 69.244 104.176 68.56 103.384 67.696C102.616 66.808 102.04 65.764 101.656 64.564C101.272 63.34 101.08 62.02 101.08 60.604Z" fill="white"/>
<path d="M144 2.5C144 1.11929 145.119 0 146.5 0H178C185.542 0 189.314 0 191.657 2.34315C194 4.68629 194 8.45753 194 16V47.5C194 48.8807 192.881 50 191.5 50V50C190.119 50 189 48.8807 189 47.5V21C189 13.4575 189 9.68629 186.657 7.34315C184.314 5 180.542 5 173 5H146.5C145.119 5 144 3.88071 144 2.5V2.5Z" fill="white"/>
<path fill-rule="evenodd" clip-rule="evenodd" d="M120.343 8.34315C118 10.6863 118 14.4575 118 22L117.96 36.736V39.928V43.12L118 60C118 67.5425 118 71.3137 120.343 73.6569C122.686 76 126.458 76 134 76H172C179.542 76 183.314 76 185.657 73.6569C188 71.3137 188 67.5425 188 60V22C188 14.4575 188 10.6863 185.657 8.34315C183.314 6 179.542 6 172 6H134C126.458 6 122.686 6 120.343 8.34315ZM117.96 43.12H127.992V70H135.48V43.12H145.512V36.736H117.96V39.928V43.12ZM161.988 64.048C161.316 64.208 160.452 64.288 159.396 64.288C157.284 64.288 155.492 64.08 154.02 63.664C152.58 63.216 151.364 62.72 150.372 62.176L148.26 68.128C148.708 68.384 149.252 68.656 149.892 68.944C150.564 69.232 151.348 69.504 152.244 69.76C153.172 70.016 154.228 70.224 155.412 70.384C156.596 70.576 157.924 70.672 159.396 70.672C163.78 70.672 167.06 69.824 169.236 68.128C171.412 66.4 172.5 63.984 172.5 60.88C172.5 59.28 172.292 57.92 171.876 56.8C171.46 55.68 170.82 54.704 169.956 53.872C169.124 53.04 168.068 52.32 166.788 51.712C165.508 51.072 164.004 50.432 162.276 49.792C161.444 49.504 160.676 49.232 159.972 48.976C159.3 48.688 158.692 48.384 158.148 48.064C157.636 47.712 157.236 47.328 156.948 46.912C156.66 46.496 156.516 45.984 156.516 45.376C156.516 44.352 156.9 43.6 157.668 43.12C158.468 42.608 159.764 42.352 161.556 42.352C163.156 42.352 164.516 42.544 165.636 42.928C166.788 43.28 167.828 43.696 168.756 44.176L170.916 38.272C169.86 37.696 168.516 37.168 166.884 36.688C165.252 36.208 163.316 35.968 161.076 35.968C159.188 35.968 157.492 36.208 155.988 36.688C154.484 37.136 153.204 37.792 152.148 38.656C151.092 39.52 150.276 40.576 149.7 41.824C149.124 43.04 148.836 44.416 148.836 45.952C148.836 47.488 149.108 48.8 149.652 49.888C150.196 50.944 150.9 51.856 151.764 52.624C152.628 53.36 153.604 53.984 154.692 54.496C155.78 54.976 156.868 55.408 157.956 55.792C160.452 56.624 162.212 57.408 163.236 58.144C164.26 58.848 164.772 59.744 164.772 60.832C164.772 61.344 164.692 61.808 164.532 62.224C164.372 62.64 164.084 63.008 163.668 63.328C163.252 63.616 162.692 63.856 161.988 64.048Z" fill="white"/>
</svg>
